PathFileType	4	(X/Y/Z)	C:/Users/beibeiliu/ov580/test_trc/capture2\sequence.32_training_dense_left.trc
DataRate	CameraRate	NumFrames	NumMarkers	Units	OrigDataRate	OrigDataStartFrame	OrigNumFrames
120	120	24	19	mm	120	82	327
Frame#	Time	ThumbCMC			ThumbMCP			ThumbIP			ThumbTip			IndexMCP			IndexPIP			IndexTip			MiddleMCP			MiddlePIP			MiddleTip			RingMCP			RingPIP			RingTip			PinkyMCP			PinkyPIP			PinkyTip			BackHand1			BackHand2			BackHand3	
		X0	Y0	Z0	X1	Y1	Z1	X2	Y2	Z2	X3	Y3	Z3	X4	Y4	Z4	X5	Y5	Z5	X6	Y6	Z6	X7	Y7	Z7	X8	Y8	Z8	X9	Y9	Z9	X10	Y10	Z10	X11	Y11	Z11	X12	Y12	Z12	X13	Y13	Z13	X14	Y14	Z14	X15	Y15	Z15	X16	Y16	Z16	X17	Y17	Z17	X18	Y18	Z18	
81	0.675	-93.0927	79.4684	63.4616	-66.2861	69.204	41.8491	-56.0417	58.937	17.1544	-56.1733	40.6829	0.783372	-111.669	68.0313	-8.08435	-106.229	59.463	-31.3545	-99.8686	49.2072	-55.6798	-118.386	50.5601	-15.4088	-111.258	44.0471	-41.0244	-100.538	29.7973	-64.5217	-106.597	28.0464	-7.07039	-77.8339	20.4539	-14.8781	-55.9395	31.5474	13.3024	-95.9887	14.2077	8.95939	-71.0835	17.8806	18.7552	-71.2416	32.4775	49.2156	-137.204	32.6826	38.7046	-141.104	34.8094	67.8001	-131.785	66.5373	52.1107	
82	0.683333	-92.5652	78.6726	61.9634	-65.5434	67.4904	45.5933	-52.8229	54.5035	18.5083	-57.2585	35.5589	2.74928	-111.144	69.9144	-9.75245	-104.259	63.1432	-32.5891	-98.8141	50.1092	-53.9792	-118.815	50.5253	-12.3509	-110.768	42.8375	-43.4457	-100.301	31.6016	-67.1235	-110.801	29.5294	-10.2233	-86.0721	19.6516	-25.3825	-54.8788	26.3922	-14.9199	-99.2408	12.8601	9.91208	-68.9969	15.0294	16.4995	-67.7156	30.6974	43.908	-134.726	36.9092	35.3517	-140.762	38.9265	67.0208	-133.092	66.2932	53.0432	
83	0.691667	-91.7591	76.3567	65.264	-59.9305	66.2937	45.36	-51.5869	51.3267	22.0107	-55.4949	29.9969	5.41187	-108.232	71.1414	-7.98727	-101.702	62.6617	-32.7245	-97.0861	53.6917	-54.2493	-118.251	48.8961	-16.0781	-110.999	41.6376	-40.8431	-101.958	33.6441	-64.8499	-112.592	31.4277	-8.92708	-93.9919	21.487	-30.9409	-61.365	17.9962	-37.0479	-97.1266	11.0589	9.11503	-68.3279	12.1715	16.4684	-65.8168	33.3039	42.0942	-133.02	34.058	36.2863	-139.334	35.4644	67.3471	-130.644	67.7588	51.0917	
84	0.7	-89.6997	77.6507	62.3678	-58.9211	64.3319	44.6438	-46.4733	50.3849	21.6292	-56.3688	27.0314	8.93115	-107.172	71.6321	-6.62862	-98.8045	61.7295	-34.0697	-95.435	57.2458	-52.9757	-114.781	53.5945	-16.0584	-111.042	44.7003	-38.378	-102.793	39.3718	-66.3935	-111.989	31.0715	-10.0291	-94.6119	25.1354	-34.4316	-71.3461	20.0838	-50.162	-94.8145	15.0166	6.59688	-67.2069	12.7747	16.3419	-63.1059	31.9238	41.1171	-134.531	34.3065	35.5967	-138.834	37.6966	69.3321	-129.599	69.2417	51.6171	
85	0.708333	-89.1038	76.8738	66.1856	-61.6518	62.4731	45.6935	-52.5693	46.8898	24.7484	-61.1733	24.8709	10.2392	-105.234	69.4343	-7.3092	-98.4331	63.7174	-28.0245	-94.5472	56.345	-52.0963	-114.388	54.3515	-12.731	-108.172	48.2821	-40.5439	-103.132	42.0847	-63.9275	-111.783	30.0047	-9.56298	-98.2091	27.9554	-32.7331	-80.837	18.4279	-54.7258	-93.1799	10.7907	6.14639	-67.3815	13.5514	15.8707	-63.9675	29.9771	47.4203	-133.047	33.8316	39.0931	-138.611	38.9388	65.9143	-128.765	69.11	55.4649	
86	0.716667	-91.1013	75.0534	67.1882	-61.0677	63.0224	46.0154	-50.2974	48.7201	24.8708	-65.1073	22.4192	9.55929	-105.216	68.6996	-4.77392	-98.2271	67.2414	-30.902	-94.9906	58.3267	-54.4769	-114.455	50.3969	-10.5711	-108.082	48.1657	-35.8963	-104.83	40.783	-67.1034	-110.281	32.5385	-8.37488	-99.0989	25.3483	-34.0357	-89.0614	20.5771	-53.022	-95.1196	14.361	8.43124	-66.9452	17.4345	17.6026	-65.2068	26.7673	46.8697	-132.232	33.5357	41.3682	-139.705	39.5355	65.6345	-129.585	69.7485	54.092	
87	0.725	-90.2099	75.7942	67.5858	-60.049	63.7942	45.8374	-55.729	46.6932	24.2585	-63.1389	24.1575	9.52437	-105.915	68.8589	-7.0956	-99.4393	64.9312	-29.0545	-96.5047	58.9351	-53.2807	-113.875	53.6986	-13.377	-108.128	50.4077	-37.1048	-103.819	43.6361	-62.0872	-112.345	29.6039	-7.63215	-101.835	27.4389	-30.5718	-91.0476	22.2203	-54.8103	-96.7545	13.696	9.2392	-66.8318	13.0646	18.2543	-66.6891	25.2947	45.7894	-134.371	33.5166	40.3579	-140.63	37.1114	70.9111	-130.097	67.9994	54.4286	
88	0.733333	-90.185	75.3665	65.4651	-62.5171	63.3958	46.6636	-52.5375	46.8726	19.8044	-68.2595	22.2518	11.9932	-106.291	67.8783	-3.84621	-98.8806	65.2523	-32.3803	-98.1023	56.4707	-50.8754	-115.007	49.1078	-14.593	-109.004	46.0061	-38.9174	-104.99	43.7837	-61.5513	-112.933	28.1608	-5.34422	-103.03	26.5114	-28.7742	-93.2548	20.5362	-52.6426	-98.8902	13.177	8.22812	-70.603	11.7572	13.0616	-65.8035	20.6916	43.2478	-134.474	35.6007	42.1906	-141.275	36.1371	69.2597	-127.882	67.9642	51.0549	
89	0.741667	-90.4027	73.4805	65.8118	-63.5357	62.5906	46.4346	-56.5389	45.511	22.4111	-65.5718	25.0487	12.257	-105.734	67.5601	-4.48146	-98.577	63.6658	-31.1053	-96.9386	59.5539	-54.2339	-115.524	49.996	-13.9527	-109.012	48.8617	-38.3393	-106.634	41.7941	-62.7898	-113.232	31.6787	-7.13695	-105.146	25.2402	-30.1951	-93.2911	22.9948	-52.7634	-102.907	9.80665	8.99612	-71.8709	10.3279	11.99	-67.5932	23.9176	40.9695	-134.694	32.5697	41.9491	-142.254	35.0956	70.2514	-128.937	68.2398	52.0985	
90	0.75	-89.1498	75.3673	68.9366	-64.275	60.7721	47.0555	-53.5587	44.7703	20.2417	-70.3341	22.3696	12.5481	-107.248	66.8513	-2.58418	-100.67	63.9577	-26.6696	-96.6008	56.7047	-53.2108	-115.241	51.5783	-8.80317	-110.353	48.0156	-34.1409	-106.546	42.0026	-64.0926	-114.313	32.8674	-4.3526	-105.43	26.3706	-30.4676	-93.914	19.687	-56.9888	-100.829	9.10387	6.20504	-73.8089	10.5825	9.55184	-66.7283	21.3131	37.7726	-132.94	37.5557	42.3513	-140.523	34.6581	68.5547	-129.357	70.2544	54.3855	
91	0.758333	-89.403	76.0321	67.7014	-61.5562	63.1051	45.895	-54.0709	46.5568	22.2419	-68.6112	24.598	12.5424	-105.842	69.7659	-7.72622	-100.416	63.4428	-28.209	-96.7265	57.758	-51.9262	-115.495	54.4861	-8.78711	-109.84	49.6147	-38.99	-107.227	42.6832	-64.0844	-114.702	32.332	-10.1958	-106.601	24.2399	-29.566	-94.9768	18.6533	-53.4864	-104.362	12.1571	9.88539	-73.3462	8.55019	12.4843	-67.0317	20.5978	43.0511	-134.593	37.859	40.6109	-141.697	38.1787	67.4454	-127.873	67.7527	52.7159	
92	0.766667	-89.2355	74.4164	68.8353	-64.6135	60.8652	48.0957	-57.0097	45.4968	19.851	-72.7868	23.9356	12.8306	-106.557	68.6863	-2.87268	-101.054	64.6302	-29.4678	-98.193	57.4106	-48.9968	-117.228	50.8169	-10.0754	-110.768	46.8779	-36.2112	-106.774	44.6788	-65.0949	-116.011	30.8746	-8.04149	-105.976	25.3592	-31.9649	-95.5619	23.2591	-52.611	-103.178	10.7451	7.58796	-73.5147	9.87235	12.348	-68.9847	24.1377	42.8551	-135.224	34.6721	41.6347	-141.421	39.6724	72.2514	-129.201	64.8748	57.1116	
93	0.775	-88.4697	71.7404	69.4957	-63.6096	57.9947	44.6749	-58.0431	44.0687	23.5157	-69.7188	23.7318	7.73331	-105.885	74.551	-1.31702	-100.582	69.3441	-26.2911	-98.1696	62.8959	-51.834	-115.322	56.2611	-13.2844	-111.052	52.0255	-34.7221	-107.749	44.7792	-62.0799	-116.094	33.8998	-10.3969	-107.471	30.0008	-29.9933	-94.5957	28.8572	-55.7119	-103.336	15.9607	7.09732	-74.0188	12.4814	13.3822	-71.898	24.664	44.4002	-135.614	41.7676	40.9587	-139.295	42.467	70.2202	-128.402	69.3925	56.9814	
94	0.783333	-87.2795	67.9259	70.8164	-58.5696	54.6677	45.8984	-56.8286	40.1093	17.6374	-73.9742	23.8035	8.06224	-101.562	78.4574	-3.23405	-99.4663	71.7903	-25.6298	-97.2327	68.6204	-48.0389	-113.994	63.6125	-12.2017	-109.742	60.5843	-36.6856	-109.449	53.0361	-63.9515	-116.854	41.6992	-9.45657	-108.81	39.3026	-30.3545	-100.307	33.9482	-58.4438	-104.835	18.8633	5.97994	-79.1899	7.82954	12.9653	-73.1273	21.9148	45.0865	-133.252	45.4983	42.5652	-141.188	44.3853	70.2337	-125.125	69.7145	58.1279	
95	0.791667	-82.3608	64.0194	71.242	-57.674	48.881	47.0208	-61.582	37.962	17.2904	-76.331	23.0463	3.03663	-98.2064	81.9582	-1.75174	-95.9627	77.8494	-25.5962	-96.2522	74.9756	-50.5117	-114.121	67.7039	-9.93698	-109.627	68.759	-30.6583	-109.652	64.7552	-61.2089	-118.097	47.8758	-9.57765	-111.756	45.8493	-29.4439	-104.117	44.2125	-54.705	-112.238	20.0568	4.58115	-81.1933	11.0382	14.2259	-78.5856	23.7054	41.8524	-135.581	49.8397	39.6123	-137.474	47.4155	71.7371	-118.261	77.06	60.7772	
96	0.8	-76.7846	59.2332	70.4955	-60.1585	44.0287	42.8452	-60.9175	34.4731	11.2253	-85.2148	25.8388	1.50468	-91.3074	85.8221	4.08234	-87.5921	87.9826	-21.9608	-91.6294	85.8666	-47.3855	-109.465	74.5034	-3.90519	-107.802	76.3213	-31.5038	-106.944	78.4806	-56.1	-115.768	60.1742	-7.5815	-110.805	58.2239	-31.8029	-105.009	55.7224	-55.8217	-112.592	29.2376	0.172111	-88.4998	14.7011	8.54267	-87.0419	19.3329	39.0927	-133.525	55.9854	41.7515	-139.237	52.4536	70.2979	-110.082	76.3696	66.4601	
97	0.808333	-74.5794	52.6298	70.6865	-58.9041	37.9285	41.4181	-65.1834	33.2364	14.2178	-91.1735	29.8084	-2.66643	-83.4312	88.8495	9.26795	-80.1866	91.3325	-20.9324	-82.4887	92.8897	-45.2254	-105.253	80.2884	-2.92995	-100.469	85.8738	-30.6162	-98.9235	90.6299	-55.3892	-114.101	68.1969	-6.27816	-112.178	66.0681	-31.1911	-105.52	66.3332	-56.4382	-117.996	39.0186	-1.86632	-94.9305	19.4416	1.47897	-92.6025	20.7683	34.3201	-128.29	65.8751	44.3042	-135.51	54.7515	74.9832	-105.571	76.1411	64.3608	
98	0.816667	-70.2742	45.8534	71.0672	-58.2969	29.8146	38.3462	-68.1529	31.7137	6.68818	-93.3077	34.2566	-2.4553	-77.8327	85.0614	9.55761	-72.8555	88.3651	-19.1394	-74.7191	92.1164	-41.0268	-97.0472	84.0552	-1.84911	-91.9793	87.7735	-24.6947	-90.6748	94.2042	-55.9718	-111.405	73.1567	-5.70269	-109.415	72.2991	-28.7591	-101.133	73.2645	-53.2338	-120.64	48.1903	-1.66693	-103.208	25.2547	-3.84323	-99.7423	21.2971	29.8038	-124.953	69.7132	44.9936	-133.207	59.1975	75.6704	-97.3708	73.2476	70.7475	
99	0.825	-73.9012	35.3596	65.2676	-66.8296	21.3302	33.1807	-72.0828	23.848	5.44397	-95.1937	34.1866	-7.39791	-68.5756	76.9073	6.6116	-64.7086	79.0727	-15.2089	-64.9349	84.1686	-40.9427	-87.8176	81.3379	-0.177225	-81.1456	83.9271	-27.5927	-78.024	89.8696	-55.5383	-104.693	76.4507	-6.16151	-98.8473	76.0327	-28.145	-92.0261	74.9505	-53.2119	-120.163	57.2779	1.43109	-112.777	29.6763	-7.33277	-107.789	21.1398	22.7077	-119.636	74.7608	48.6779	-124.809	65.2058	75.3445	-92.1039	69.7977	71.8145	
100	0.833333	-77.7589	25.4006	67.5858	-71.1263	12.6621	30.3943	-77.2607	18.4764	4.20707	-96.4379	33.8353	-11.182	-62.1889	68.1787	7.57266	-60.2686	69.6878	-16.3836	-60.889	75.9551	-44.1006	-80.4078	77.4503	-5.57657	-76.1767	77.6825	-27.1229	-69.9224	80.8391	-55.9276	-97.9049	75.0032	-3.01341	-93.2536	73.1427	-27.2121	-88.8904	72.6706	-55.5983	-121.525	58.648	-1.90937	-115.528	30.6395	-7.07263	-112.737	19.2786	23.5138	-112.484	75.8299	47.9471	-118.812	64.7902	79.0733	-83.9434	62.3871	69.3177	
101	0.841667	-75.341	23.016	61.9182	-77.2175	9.92897	32.215	-82.9675	17.2829	4.80284	-98.8518	32.1395	-9.88836	-59.4846	61.493	4.52889	-56.8449	60.9122	-18.3727	-59.3006	67.8151	-47.4807	-77.4662	70.9057	-3.18242	-74.5005	71.1391	-32.7532	-72.3434	73.6742	-56.8079	-93.992	71.3958	-6.04498	-92.6667	69.2203	-33.0212	-87.7775	67.5986	-55.5089	-119.466	57.7549	-2.43144	-117.086	29.873	-6.92049	-116.792	17.8972	25.8945	-107.79	75.5665	47.8486	-116.678	66.9517	73.1354	-79.163	62.16	65.5066	
102	0.85	-74.9252	20.018	61.954	-76.5553	6.95887	28.5476	-84.4961	12.9305	3.65218	-101.52	29.4604	-10.4077	-56.5801	56.3043	0.00186816	-55.183	54.7	-22.4769	-58.8116	58.9208	-45.4499	-77.134	67.5418	-7.9883	-69.5635	64.4378	-31.4413	-69.2617	66.8875	-58.4214	-96.2002	67.3875	-7.83946	-90.2767	63.2244	-32.8837	-88.2975	63.5391	-57.0621	-116.773	55.577	-0.702344	-116.728	25.7735	-6.15062	-119.78	14.9853	24.7837	-106.911	73.7595	44.826	-111.083	65.8354	72.7042	-80.4671	60.7125	63.5443	
103	0.858333	-79.0748	19.7262	62.2656	-79.052	4.9896	32.1376	-84.3594	8.31956	2.9935	-101.478	27.5989	-11.4057	-58.742	53.9527	1.06016	-56.1101	52.017	-24.0146	-55.6055	54.2744	-48.8157	-74.9819	63.9078	-7.47262	-71.016	62.1663	-34.1622	-67.4592	62.1182	-56.5949	-91.7614	64.3986	-7.75789	-88.9183	61.2743	-31.3295	-85.7886	60.5155	-58.5841	-114.672	56.0868	-3.38817	-115.753	27.1684	-10.8484	-118.776	10.1754	17.8128	-105.314	71.2411	43.7932	-110.703	65.9194	71.9167	-80.4337	58.2425	63.0905	
104	0.866667	-79.7535	17.9243	65.5279	-80.5807	4.73762	31.9081	-85.6701	6.88993	3.10871	-102.778	27.8435	-12.0575	-57.6991	51.1223	1.42745	-56.9014	49.7604	-25.3217	-57.2767	53.333	-50.5224	-76.3654	62.3791	-7.29651	-70.4846	60.519	-31.8981	-65.6517	60.7705	-61.3987	-92.4199	64.8352	-10.4606	-88.8787	61.9749	-29.3491	-83.75	59.7723	-57.2933	-114.653	59.5554	0.934566	-113.923	35.4249	-18.2691	-121.564	8.82955	-0.474373	-105.78	72.4775	44.2533	-114.039	68.148	76.3352	-78.6425	54.2419	65.7204	
